<svg width="21" height="18" viewBox="0 0 21 18" fill="none" xmlns="http://www.w3.org/2000/svg">
<path d="M0.641127 1.87596e-05C0.361297 0.012593 0.143696 0.244991 0.156813 0.514304C0.169933 0.783617 0.263595 1.02348 0.691229 1.02859H2.95414C3.27043 2.10335 3.607 3.17488 3.91442 4.25091C4.62973 6.98563 5.34036 9.72615 6.05208 12.4634C6.10766 12.6852 6.33276 12.8563 6.5698 12.8571H18.3269C18.564 12.8571 18.7891 12.6852 18.8447 12.4634L20.9823 4.23484C21.0698 3.90607 20.7859 3.6011 20.4646 3.60001H4.8413L3.88102 0.369661C3.81615 0.156655 3.59393 -0.00198438 3.36331 1.87596e-05H0.641127ZM5.11686 4.62858H19.7799L17.9094 11.8286H6.98731L5.11686 4.62858ZM8.97467 13.8857C7.8004 13.8857 6.83701 14.8128 6.83701 15.9429C6.83701 17.0729 7.8004 18 8.97467 18C10.1489 18 11.1123 17.0729 11.1123 15.9429C11.1123 14.8128 10.1489 13.8857 8.97467 13.8857ZM15.9221 13.8857C14.7478 13.8857 13.7844 14.8128 13.7844 15.9429C13.7844 17.0729 14.7478 18 15.9221 18C17.0963 18 18.0597 17.0729 18.0597 15.9429C18.0597 14.8128 17.0963 13.8857 15.9221 13.8857ZM8.97467 14.9143C9.57129 14.9143 10.0435 15.3687 10.0435 15.9429C10.0435 16.517 9.57129 16.9714 8.97467 16.9714C8.37804 16.9714 7.90584 16.517 7.90584 15.9429C7.90584 15.3687 8.37804 14.9143 8.97467 14.9143ZM15.9221 14.9143C16.5187 14.9143 16.9909 15.3687 16.9909 15.9429C16.9909 16.517 16.5187 16.9714 15.9221 16.9714C15.3254 16.9714 14.8532 16.517 14.8532 15.9429C14.8532 15.3687 15.3254 14.9143 15.9221 14.9143Z" fill="white"/>
</svg>
