<svg xmlns="http://www.w3.org/2000/svg" width="17.363" height="12.083" viewBox="0 0 17.363 12.083">
  <path d="M7.292,8.267V3.44l4.691,2.422Zm10.3-5.66A3.694,3.694,0,0,0,16.9.9a2.5,2.5,0,0,0-1.74-.727C12.732,0,9.087,0,9.087,0H9.08S5.435,0,3.006.174A2.5,2.5,0,0,0,1.266.9a3.691,3.691,0,0,0-.69,1.705A25.71,25.71,0,0,0,.4,5.387v1.3A25.709,25.709,0,0,0,.576,9.47a3.691,3.691,0,0,0,.69,1.705,2.962,2.962,0,0,0,1.914.734c1.389.132,5.9.173,5.9.173s3.648-.006,6.078-.179a2.5,2.5,0,0,0,1.74-.728,3.694,3.694,0,0,0,.69-1.705,25.766,25.766,0,0,0,.173-2.78v-1.3A25.767,25.767,0,0,0,17.592,2.607Z" transform="translate(-0.402)" fill="#fff" fill-rule="evenodd"/>
</svg>
