<svg width="14" height="14" viewBox="0 0 14 14" fill="none" xmlns="http://www.w3.org/2000/svg">
<path d="M6.35623 3.31518C8.11861 3.31518 9.54094 4.7542 9.54094 6.53728C9.54094 8.32035 8.11861 9.75937 6.35623 9.75937C4.59384 9.75937 3.17151 8.32035 3.17151 6.53728C3.17151 4.7542 4.59384 3.31518 6.35623 3.31518ZM6.35623 8.6314C7.49595 8.6314 8.42606 7.69038 8.42606 6.53728C8.42606 5.38417 7.49595 4.44315 6.35623 4.44315C5.2165 4.44315 4.28639 5.38417 4.28639 6.53728C4.28639 7.69038 5.2165 8.6314 6.35623 8.6314ZM3.04108 2.43228C3.45256 2.43228 3.78485 2.76847 3.78485 3.18479C3.78485 3.6011 3.45256 3.93729 3.04108 3.93729C2.6296 3.93729 2.29731 3.60267 2.29731 3.18479C2.29718 3.08593 2.31634 2.98802 2.35367 2.89667C2.39101 2.80532 2.44579 2.72231 2.51488 2.65241C2.58397 2.58251 2.66601 2.52708 2.7563 2.48931C2.8466 2.45154 2.94337 2.43216 3.04108 2.43228V2.43228ZM0.148285 6.53728C0.148285 5.67009 0.140521 4.81076 0.188657 3.94514C0.236792 2.93971 0.463495 2.04739 1.19019 1.31217C1.91843 0.575375 2.79885 0.347582 3.79262 0.298881C4.64974 0.250181 5.4991 0.258036 6.35467 0.258036C7.2118 0.258036 8.06116 0.250181 8.91673 0.298881C9.9105 0.347582 10.7925 0.576946 11.5192 1.31217C12.2474 2.04896 12.4726 2.93971 12.5207 3.94514C12.5688 4.81233 12.5611 5.67166 12.5611 6.53728C12.5611 7.40289 12.5688 8.26379 12.5207 9.12941C12.4726 10.1348 12.2459 11.0272 11.5192 11.7624C10.7909 12.4992 9.9105 12.727 8.91673 12.7757C8.05961 12.8244 7.21025 12.8165 6.35467 12.8165C5.49755 12.8165 4.64819 12.8244 3.79262 12.7757C2.79885 12.727 1.91688 12.4976 1.19019 11.7624C0.461943 11.0256 0.236792 10.1348 0.188657 9.12941C0.138968 8.26379 0.148285 7.40446 0.148285 6.53728V6.53728ZM1.51472 10.2417C1.62807 10.5276 1.76471 10.7412 1.98365 10.9612C2.20259 11.1827 2.41221 11.3209 2.69481 11.4356C3.51157 11.764 5.45097 11.6901 6.35623 11.6901C7.26149 11.6901 9.20244 11.764 10.0192 11.4372C10.3018 11.3225 10.513 11.1843 10.7304 10.9627C10.9493 10.7412 11.0859 10.5292 11.1993 10.2432C11.5223 9.41533 11.4493 7.45316 11.4493 6.53728C11.4493 5.62139 11.5223 3.65765 11.1993 2.83131C11.0859 2.54539 10.9493 2.33174 10.7304 2.1118C10.5114 1.89186 10.3018 1.75205 10.0192 1.63736C9.20244 1.3106 7.26149 1.38443 6.35623 1.38443C5.45097 1.38443 3.51001 1.3106 2.69326 1.63736C2.41066 1.75205 2.19948 1.89029 1.9821 2.1118C1.76316 2.33331 1.62651 2.54539 1.51316 2.83131C1.19019 3.65765 1.26317 5.62139 1.26317 6.53728C1.26317 7.45316 1.19019 9.41533 1.51472 10.2417Z" fill="white"/>
</svg>
