<svg xmlns="http://www.w3.org/2000/svg" width="15.599" height="16.366" viewBox="0 0 15.599 16.366">
  <g fill="#fff">
    <path data-name="Path 214" d="M15.221 2.32A6.054 6.054 0 0 1 12.036.197a.512.512 0 0 0-.4-.2H3.964a.512.512 0 0 0-.4.2A6.054 6.054 0 0 1 .379 2.32a.511.511 0 0 0-.375.493v4.422a7.761 7.761 0 0 0 3.634 6.594l3.892 2.458a.512.512 0 0 0 .546 0l3.951-2.5a7.633 7.633 0 0 0 3.575-6.486V2.813a.511.511 0 0 0-.375-.493Zm-.648 4.986a6.615 6.615 0 0 1-3.1 5.621L7.795 15.25l-3.618-2.286a6.74 6.74 0 0 1-3.158-5.728V3.192a7.059 7.059 0 0 0 3.185-2.168h7.182a7.06 7.06 0 0 0 3.185 2.168Z"/>
    <path data-name="Path 215" d="M10.506 5.265 7.288 8.483 5.604 6.799a.511.511 0 0 0-.723.723l2.046 2.046a.511.511 0 0 0 .723 0l3.58-3.58a.511.511 0 0 0-.723-.723Z"/>
  </g>
</svg>
