<svg width="18" height="20" viewBox="0 0 18 20" fill="none" xmlns="http://www.w3.org/2000/svg">
<path d="M9.00026 0C12.2832 0 14.9952 2.71201 14.9952 5.99496C14.9952 8.13602 13.8533 10.1343 11.9977 11.1335C15.2807 12.2754 17.5645 15.2729 17.9927 18.8413C18.1354 19.8405 16.1371 19.8405 16.1371 18.984C15.8516 15.4156 12.7114 12.5609 9.00026 12.5609C5.2891 12.5609 2.29162 15.4156 1.86341 18.984C1.72067 19.9832 -0.134912 19.8405 0.0078247 18.8413C0.293299 15.2729 2.71983 12.2754 6.00278 11.1335C4.28994 10.1343 3.0053 8.13602 3.0053 5.99496C3.0053 2.71201 5.71731 0 9.00026 0ZM9.00026 1.85558C6.71647 1.85558 4.86089 3.71117 4.86089 5.99496C4.86089 8.27875 6.71647 10.1343 9.00026 10.1343C11.2841 10.1343 13.1396 8.27875 13.1396 5.99496C13.1396 3.71117 11.2841 1.85558 9.00026 1.85558Z" fill="black"/>
</svg>
