<svg xmlns="http://www.w3.org/2000/svg" width="17" height="16.482" viewBox="0 0 17 16.482">
  <path data-name="Path 99" d="M15.41 5.06h-.656a6.834 6.834 0 0 0-.8-1.328 1.594 1.594 0 0 0-.425-2.091 8.5 8.5 0 0 0-10.041 0 1.594 1.594 0 0 0-.433 2.091 6.839 6.839 0 0 0-.8 1.328h-.664A1.594 1.594 0 0 0-.003 6.654V9.31a1.594 1.594 0 0 0 1.594 1.594h1.063a.531.531 0 0 0 .531-.531V5.568a5.818 5.818 0 0 1 .685-1.142 1.594 1.594 0 0 0 1.509-.21 5.313 5.313 0 0 1 6.242 0 1.62 1.62 0 0 0 .956.316 1.594 1.594 0 0 0 .553-.1 5.84 5.84 0 0 1 .68 1.14v4.834a5.845 5.845 0 0 1-3.373 3.092 2.125 2.125 0 1 0 .175 1.062 6.928 6.928 0 0 0 4.141-3.65h.657a1.594 1.594 0 0 0 1.594-1.594V6.653A1.594 1.594 0 0 0 15.41 5.06ZM8.501 15.419a1.062 1.062 0 1 1 .751-.311 1.063 1.063 0 0 1-.751.311ZM2.126 9.841h-.531a.531.531 0 0 1-.531-.531V6.653a.531.531 0 0 1 .531-.531h.531Zm10.121-6.489a6.376 6.376 0 0 0-7.491 0 .53.53 0 1 1-.648-.837 7.438 7.438 0 0 1 8.787 0 .53.53 0 1 1-.648.837Zm3.692 5.958a.531.531 0 0 1-.531.531h-.531V6.122h.533a.531.531 0 0 1 .531.531Z" fill="#fff"/>
</svg>