<svg width="24" height="25" viewBox="0 0 24 25" fill="none" xmlns="http://www.w3.org/2000/svg">
<path d="M12.7862 7.58525C12.6378 7.63924 12.4741 7.63206 12.331 7.5653C12.188 7.49854 12.0772 7.37767 12.0232 7.22926C12.0148 7.20138 12.0048 7.17398 11.9933 7.1472C11.9009 6.94982 11.7379 6.79424 11.5365 6.71114C11.335 6.62805 11.1098 6.62348 10.9052 6.69833C10.7966 6.7376 10.6967 6.79803 10.6115 6.87613C10.5263 6.95422 10.4574 7.04843 10.4089 7.15331C10.3603 7.2582 10.3329 7.37168 10.3284 7.4872C10.3239 7.60273 10.3424 7.71801 10.3826 7.82638C10.4367 7.97479 10.4295 8.13856 10.3628 8.28167C10.2961 8.42478 10.1753 8.53551 10.027 8.5895C9.87868 8.64349 9.71497 8.63631 9.57188 8.56955C9.4288 8.50279 9.31808 8.38192 9.26406 8.23351C9.07931 7.71978 9.10528 7.15384 9.33632 6.65933C9.56735 6.16482 9.98466 5.78193 10.4971 5.59431C10.978 5.41779 11.5074 5.42711 11.9819 5.62045C12.4564 5.81378 12.8418 6.17723 13.0627 6.63969C13.0922 6.6991 13.1186 6.76 13.1418 6.82213C13.1958 6.97054 13.1887 7.13431 13.122 7.27742C13.0553 7.42053 12.9345 7.53126 12.7862 7.58525Z" fill="black"/>
<path d="M8.46242 12.9174C8.31409 12.9714 8.15038 12.9642 8.0073 12.8974C7.86422 12.8307 7.75349 12.7098 7.69948 12.5614L6.6289 9.62C6.44322 9.14598 6.43916 8.62009 6.61751 8.14338C6.79586 7.66666 7.14403 7.27274 7.59513 7.03729C8.04624 6.80184 8.56845 6.74148 9.06145 6.8678C9.55445 6.99412 9.98346 7.29821 10.266 7.72165C10.3329 7.8147 10.3909 7.91382 10.4392 8.01769C10.4688 8.07707 10.4952 8.13797 10.5183 8.20014C10.5723 8.34854 10.5652 8.51231 10.4985 8.65543C10.4318 8.79854 10.311 8.90927 10.1627 8.96326C10.0144 9.01725 9.85065 9.01007 9.70757 8.94331C9.56449 8.87655 9.45376 8.75567 9.39975 8.60727C9.37442 8.53668 9.34009 8.46966 9.29761 8.40787C9.17709 8.2324 8.99667 8.10699 8.79026 8.05521C8.58385 8.00343 8.36566 8.02884 8.17671 8.12667C7.98775 8.2245 7.84104 8.38801 7.76416 8.58647C7.68727 8.78493 7.68549 9.00467 7.75917 9.20439L8.82974 12.1458C8.85753 12.2205 8.87003 12.3 8.86652 12.3797C8.863 12.4593 8.84354 12.5374 8.80929 12.6094C8.77503 12.6813 8.72668 12.7457 8.66709 12.7986C8.60751 12.8515 8.53791 12.8919 8.46242 12.9174Z" fill="black"/>
<path d="M14.2399 11.5965C14.0916 11.6505 13.9279 11.6433 13.7848 11.5766C13.6417 11.5098 13.531 11.3889 13.4769 11.2405L11.9678 7.09422C11.9138 6.94582 11.9209 6.78205 11.9876 6.63893C12.0543 6.49582 12.1751 6.38509 12.3234 6.3311C12.4718 6.27712 12.6355 6.28429 12.7786 6.35105C12.9217 6.41781 13.0324 6.53869 13.0864 6.68709L14.6003 10.8464C14.6501 10.9938 14.6402 11.1548 14.5729 11.295C14.5055 11.4351 14.386 11.5434 14.2399 11.5965Z" fill="black"/>
<path d="M11.3648 12.2893C11.2165 12.3432 11.0527 12.3361 10.9097 12.2693C10.7666 12.2026 10.6559 12.0817 10.6018 11.9333L9.29163 8.33348C9.23761 8.18508 9.24474 8.0213 9.31143 7.87819C9.37812 7.73508 9.49892 7.62435 9.64725 7.57036C9.79559 7.51637 9.9593 7.52355 10.1024 7.59031C10.2455 7.65707 10.3562 7.77795 10.4102 7.92635L11.7204 11.5261C11.7744 11.6745 11.7673 11.8383 11.7006 11.9814C11.6339 12.1245 11.5131 12.2353 11.3648 12.2893Z" fill="black"/>
<path d="M13.2471 13.1682C12.7329 13.3548 12.1655 13.3296 11.6697 13.0983C11.1738 12.8669 10.7899 12.4482 10.6022 11.9341C10.5482 11.7857 10.5553 11.6219 10.622 11.4788C10.6887 11.3357 10.8095 11.2249 10.9578 11.1709C11.1062 11.117 11.2699 11.1241 11.413 11.1909C11.5561 11.2577 11.6668 11.3785 11.7208 11.5269C11.8 11.7446 11.9624 11.9219 12.1723 12.0198C12.3821 12.1177 12.6222 12.1282 12.8398 12.0491C13.0573 11.9699 13.2345 11.8075 13.3323 11.5976C13.4301 11.3877 13.4406 11.1475 13.3614 10.9298C13.3074 10.7814 13.3145 10.6176 13.3812 10.4745C13.4479 10.3314 13.5687 10.2207 13.717 10.1667C13.8653 10.1127 14.029 10.1199 14.1721 10.1866C14.3152 10.2534 14.4259 10.3743 14.4799 10.5227C14.6666 11.0372 14.6417 11.6047 14.4106 12.1007C14.1794 12.5966 13.761 12.9806 13.2471 13.1682Z" fill="black"/>
<path d="M10.3551 13.7914C9.84285 13.979 9.27716 13.9564 8.78134 13.7286C8.28553 13.5007 7.89979 13.086 7.70821 12.575L8.26206 12.3565L8.82135 12.1529C8.90048 12.3703 9.0627 12.5474 9.27231 12.6452C9.48192 12.743 9.72176 12.7535 9.93907 12.6744C10.1564 12.5953 10.3334 12.4331 10.4311 12.2235C10.5288 12.0138 10.5392 11.7739 10.4601 11.5565C10.4061 11.4081 10.4132 11.2443 10.4799 11.1012C10.5466 10.9581 10.6674 10.8473 10.8157 10.7934C10.964 10.7394 11.1277 10.7465 11.2708 10.8133C11.4139 10.8801 11.5246 11.0009 11.5786 11.1493C11.7648 11.6622 11.7406 12.2279 11.5114 12.7228C11.2821 13.2178 10.8665 13.602 10.3551 13.7914Z" fill="black"/>
<path d="M12.6655 16.9241C12.5344 16.9744 12.3898 16.9768 12.2571 16.9307C12.1245 16.8847 12.0123 16.7933 11.9405 16.6726C11.76 16.3659 11.5143 16.1027 11.2208 15.9016C10.6531 15.5379 9.96803 15.4049 9.3057 15.5299C9.15388 15.5507 8.99984 15.5122 8.87565 15.4223C8.75147 15.3325 8.66672 15.1981 8.63904 15.0473C8.61136 14.8965 8.64289 14.7409 8.72707 14.6128C8.81124 14.4847 8.94157 14.394 9.09091 14.3597C10.0609 14.1781 11.0636 14.3765 11.8916 14.914C12.329 15.2122 12.6955 15.6031 12.965 16.0589C13.0102 16.1337 13.0383 16.2175 13.0475 16.3045C13.0567 16.3914 13.0466 16.4792 13.0181 16.5618C12.9895 16.6444 12.9431 16.7197 12.8821 16.7823C12.8212 16.8449 12.7472 16.8933 12.6655 16.9241Z" fill="black"/>
<path d="M15.6884 6.97316C15.5401 7.02715 15.3764 7.01998 15.2333 6.95322C15.0902 6.88646 14.9795 6.76558 14.9255 6.61717C14.8463 6.39952 14.6839 6.22223 14.474 6.12431C14.2642 6.0264 14.0241 6.01587 13.8065 6.09506C13.5889 6.17424 13.4118 6.33665 13.314 6.54654C13.2161 6.75644 13.2057 6.99664 13.2849 7.2143C13.3389 7.3627 13.3318 7.52647 13.2651 7.66958C13.1984 7.8127 13.0776 7.92343 12.9293 7.97741C12.781 8.0314 12.6172 8.02423 12.4742 7.95747C12.3311 7.89071 12.2203 7.76983 12.1663 7.62142C12.0736 7.36669 12.032 7.09619 12.0437 6.82538C12.0555 6.55457 12.1205 6.28875 12.235 6.0431C12.3495 5.79744 12.5112 5.57677 12.7109 5.39366C12.9107 5.21056 13.1446 5.06862 13.3992 4.97595C13.6538 4.88328 13.9242 4.84169 14.1949 4.85355C14.4656 4.86542 14.7314 4.93051 14.977 5.0451C15.2226 5.1597 15.4432 5.32156 15.6263 5.52144C15.8094 5.72132 15.9513 5.95531 16.0441 6.21005C16.0981 6.35845 16.091 6.52222 16.0243 6.66533C15.9576 6.80845 15.8368 6.91918 15.6884 6.97316Z" fill="black"/>
<path d="M15.8647 11.7863C15.3504 11.9729 14.7831 11.9478 14.2873 11.7164C13.7914 11.4851 13.4075 11.0664 13.2198 10.5522C13.1658 10.4038 13.1729 10.2401 13.2396 10.0969C13.3063 9.95383 13.4271 9.8431 13.5754 9.78911C13.7237 9.73512 13.8875 9.7423 14.0305 9.80906C14.1736 9.87582 14.2844 9.9967 14.3384 10.1451C14.4176 10.3628 14.58 10.54 14.7898 10.638C14.9997 10.7359 15.2398 10.7464 15.4574 10.6672C15.6749 10.588 15.8521 10.4256 15.9499 10.2157C16.0477 10.0058 16.0582 9.76564 15.9789 9.54798C15.9249 9.39958 15.9321 9.2358 15.9987 9.09269C16.0654 8.94958 16.1862 8.83885 16.3346 8.78486C16.4829 8.73087 16.6466 8.73805 16.7897 8.80481C16.9328 8.87157 17.0435 8.99245 17.0975 9.14085C17.2842 9.65534 17.2593 10.2229 17.0281 10.7188C16.797 11.2148 16.3786 11.5987 15.8647 11.7863Z" fill="black"/>
<path d="M16.371 20.4797L16.2275 20.5319C15.0537 20.9478 13.8048 21.1093 12.5638 21.0057C10.8757 20.8382 9.26701 20.2055 7.9167 19.1781L4.42113 16.6102C4.07592 16.4043 3.14726 15.8192 3.30672 14.5867C3.37878 14.0454 3.66197 13.5546 4.09447 13.2215C4.52698 12.8884 5.0737 12.74 5.61532 12.8086C5.66774 12.8157 5.71899 12.8297 5.76772 12.8503L8.173 13.8611L7.70322 12.5704C7.6492 12.422 7.65633 12.2583 7.72302 12.1151C7.78971 11.972 7.91051 11.8613 8.05884 11.8073C8.20718 11.7533 8.37089 11.7605 8.51397 11.8273C8.65705 11.894 8.76778 12.0149 8.82179 12.1633L9.7566 14.7317C9.79442 14.8396 9.80038 14.9561 9.77378 15.0673C9.74718 15.1785 9.68913 15.2796 9.60657 15.3587C9.52402 15.4378 9.42045 15.4914 9.30824 15.5131C9.19603 15.5348 9.07992 15.5238 8.9738 15.4813L5.39582 13.9806C5.17736 13.9696 4.96277 14.041 4.79431 14.1805C4.62586 14.32 4.51576 14.5176 4.48572 14.7343C4.43859 15.0978 4.58142 15.3162 5.05294 15.5966L5.10025 15.628L8.61888 18.2128C9.79265 19.1121 11.1929 19.6679 12.6636 19.8182C13.74 19.9074 14.8229 19.7667 15.8407 19.4053C17.7955 18.7319 19.412 17.3958 20.149 15.8475C20.6113 14.8787 20.6916 13.9158 20.3825 13.0609L16.5058 2.35172C16.4266 2.13406 16.2642 1.95677 16.0543 1.85886C15.8445 1.76094 15.6044 1.75042 15.3868 1.8296C15.1693 1.90878 14.9921 2.07119 14.8943 2.28109C14.7965 2.49098 14.786 2.73118 14.8652 2.94884L17.0656 9.02338C17.1196 9.17179 17.1125 9.33556 17.0458 9.47867C16.9791 9.62178 16.8583 9.73251 16.71 9.7865C16.5617 9.84049 16.398 9.83332 16.2549 9.76655C16.1118 9.69979 16.0011 9.57892 15.9471 9.43051L13.7428 3.35105C13.5555 2.83659 13.5802 2.26885 13.8114 1.77272C14.0426 1.2766 14.4614 0.892737 14.9756 0.705577C15.4898 0.518416 16.0574 0.543291 16.5534 0.774729C17.0494 1.00617 17.4332 1.42521 17.6205 1.93967L21.4986 12.6526C21.9208 13.8127 21.8217 15.095 21.2212 16.3571C20.3667 18.1509 18.5597 19.683 16.371 20.4797Z" fill="black"/>
</svg>
