<svg width="15" height="14" viewBox="0 0 15 14" fill="none" xmlns="http://www.w3.org/2000/svg">
<path d="M10.7551 5.19337C11.4048 3.62481 10.66 1.82654 9.09142 1.17682C7.52285 0.527096 5.72458 1.27197 5.07486 2.84053C4.42514 4.40909 5.17001 6.20737 6.73857 6.85709C8.30714 7.50681 10.1054 6.76194 10.7551 5.19337Z" fill="white"/>
<path d="M0.989898 13.4375C0.984254 13.509 0.993423 13.5809 1.01683 13.6487C1.04024 13.7165 1.07739 13.7787 1.12595 13.8315C1.1745 13.8843 1.23343 13.9265 1.29905 13.9555C1.36466 13.9845 1.43555 13.9996 1.50727 13.9999H14.3244C14.3961 13.9996 14.467 13.9845 14.5326 13.9555C14.5982 13.9265 14.6571 13.8843 14.7057 13.8315C14.7543 13.7787 14.7914 13.7165 14.8148 13.6487C14.8382 13.5809 14.8474 13.509 14.8418 13.4375C14.6323 10.474 12.71 8.15625 7.91583 8.15625C3.12166 8.15625 1.19936 10.474 0.989898 13.4375Z" fill="white"/>
</svg>
