<svg width="17" height="18" viewBox="0 0 17 18" fill="none" xmlns="http://www.w3.org/2000/svg">
<path d="M10.3167 5.13022C10.1755 5.13022 10.04 5.0739 9.94009 4.97366C9.8402 4.87342 9.78408 4.73746 9.78408 4.5957C9.78551 4.56959 9.78551 4.54342 9.78408 4.51731C9.76675 4.32244 9.67729 4.14115 9.53332 4.00922C9.38936 3.87729 9.20135 3.80429 9.00638 3.80462V3.80462C8.90295 3.80438 8.8005 3.8247 8.70495 3.86442C8.6094 3.90414 8.52263 3.96245 8.44966 4.03601C8.37669 4.10956 8.31897 4.19689 8.27982 4.29296C8.24067 4.38902 8.22088 4.49192 8.22158 4.5957C8.22158 4.73746 8.16546 4.87342 8.06557 4.97366C7.96567 5.0739 7.83019 5.13022 7.68892 5.13022C7.54765 5.13022 7.41216 5.0739 7.31226 4.97366C7.21237 4.87342 7.15625 4.73746 7.15625 4.5957C7.15813 4.10564 7.3532 3.63623 7.69887 3.29004C8.04453 2.94384 8.51268 2.74899 9.00105 2.74805V2.74805C9.45951 2.7468 9.90195 2.91721 10.2418 3.22597C10.5817 3.53473 10.7945 3.95962 10.8388 4.41753C10.8454 4.47669 10.8489 4.53617 10.8494 4.5957C10.8494 4.73746 10.7933 4.87342 10.6934 4.97366C10.5935 5.0739 10.458 5.13022 10.3167 5.13022Z" fill="white"/>
<path d="M5.04786 8.30089C4.90659 8.30089 4.7711 8.24458 4.67121 8.14434C4.57131 8.0441 4.51519 7.90814 4.51519 7.76638V4.9566C4.50413 4.49975 4.66169 4.05491 4.9576 3.70755C5.25351 3.36019 5.6669 3.1348 6.11835 3.0747C6.56979 3.01459 7.02745 3.124 7.40339 3.38191C7.77933 3.63982 8.04704 4.02803 8.15509 4.47197C8.18282 4.57099 8.20125 4.6724 8.21013 4.77486C8.21682 4.83402 8.22038 4.8935 8.22078 4.95304C8.22078 5.0948 8.16466 5.23075 8.06477 5.331C7.96487 5.43124 7.82939 5.48755 7.68812 5.48755C7.54684 5.48755 7.41136 5.43124 7.31146 5.331C7.21157 5.23075 7.15545 5.0948 7.15545 4.95304C7.15575 4.88572 7.1474 4.81865 7.13059 4.75348C7.08294 4.56847 6.9696 4.4073 6.81186 4.30025C6.65412 4.1932 6.46285 4.14765 6.27399 4.17215C6.08514 4.19666 5.91171 4.28955 5.7863 4.43334C5.66089 4.57714 5.59213 4.76195 5.59296 4.95304V7.76281C5.59345 7.83437 5.57962 7.90529 5.55229 7.97139C5.52496 8.03748 5.48469 8.09739 5.43385 8.14757C5.38302 8.19775 5.32266 8.23718 5.25635 8.26352C5.19005 8.28985 5.11915 8.30256 5.04786 8.30089V8.30089Z" fill="white"/>
<path d="M10.309 8.96047C10.1678 8.96047 10.0323 8.90415 9.93238 8.80391C9.83249 8.70367 9.77637 8.56771 9.77637 8.42595V4.46518C9.77637 4.32342 9.83249 4.18746 9.93238 4.08722C10.0323 3.98698 10.1678 3.93066 10.309 3.93066C10.4503 3.93066 10.5858 3.98698 10.6857 4.08722C10.7856 4.18746 10.8417 4.32342 10.8417 4.46518V8.43842C10.8385 8.57801 10.7809 8.71079 10.6814 8.80835C10.5818 8.90591 10.4482 8.96051 10.309 8.96047Z" fill="white"/>
<path d="M7.6811 8.66206C7.53983 8.66206 7.40435 8.60574 7.30445 8.5055C7.20456 8.40526 7.14844 8.2693 7.14844 8.12754V4.68881C7.14844 4.54705 7.20456 4.41109 7.30445 4.31085C7.40435 4.21061 7.53983 4.1543 7.6811 4.1543C7.82238 4.1543 7.95786 4.21061 8.05776 4.31085C8.15765 4.41109 8.21377 4.54705 8.21377 4.68881V8.12754C8.21377 8.2693 8.15765 8.40526 8.05776 8.5055C7.95786 8.60574 7.82238 8.66206 7.6811 8.66206V8.66206Z" fill="white"/>
<path d="M8.99502 9.98126C8.50542 9.98079 8.03601 9.78541 7.68981 9.43801C7.34361 9.09061 7.14891 8.61957 7.14844 8.12827C7.14844 7.9865 7.20456 7.85055 7.30445 7.75031C7.40435 7.65006 7.53983 7.59375 7.6811 7.59375C7.82238 7.59375 7.95786 7.65006 8.05776 7.75031C8.15765 7.85055 8.21377 7.9865 8.21377 8.12827C8.21377 8.33619 8.29608 8.53559 8.44259 8.68261C8.58911 8.82963 8.78782 8.91223 8.99502 8.91223C9.20222 8.91223 9.40093 8.82963 9.54744 8.68261C9.69395 8.53559 9.77626 8.33619 9.77626 8.12827C9.77626 7.9865 9.83238 7.85055 9.93228 7.75031C10.0322 7.65006 10.1677 7.59375 10.3089 7.59375C10.4502 7.59375 10.5857 7.65006 10.6856 7.75031C10.7855 7.85055 10.8416 7.9865 10.8416 8.12827C10.8411 8.61957 10.6464 9.09061 10.3002 9.43801C9.95403 9.78541 9.48462 9.98079 8.99502 9.98126Z" fill="white"/>
<path d="M6.36833 9.61993C5.88009 9.62089 5.41127 9.42816 5.06404 9.08373C4.71681 8.7393 4.51933 8.27111 4.51465 7.78119L5.04732 7.76694H5.57998C5.57998 7.97462 5.6622 8.1738 5.80854 8.32065C5.95489 8.4675 6.15338 8.55001 6.36034 8.55001C6.5673 8.55001 6.76579 8.4675 6.91214 8.32065C7.05848 8.1738 7.1407 7.97462 7.1407 7.76694C7.1407 7.62518 7.19682 7.48922 7.29671 7.38898C7.39661 7.28874 7.53209 7.23242 7.67337 7.23242C7.81464 7.23242 7.95013 7.28874 8.05002 7.38898C8.14991 7.48922 8.20603 7.62518 8.20603 7.76694C8.20557 8.2567 8.01209 8.7264 7.66781 9.07355C7.32353 9.42069 6.85639 9.61711 6.36833 9.61993V9.61993Z" fill="white"/>
<path d="M7.35435 12.9697C7.22873 12.9719 7.10638 12.9295 7.0089 12.8499C6.91143 12.7704 6.84512 12.6588 6.82169 12.5349C6.76371 12.2209 6.63762 11.9234 6.45237 11.6637C6.08627 11.1826 5.55082 10.8601 4.95558 10.7621C4.82151 10.7331 4.70375 10.6533 4.62683 10.5394C4.5499 10.4254 4.51974 10.2861 4.54262 10.1504C4.5655 10.0147 4.63966 9.89311 4.74966 9.81091C4.85966 9.7287 4.99702 9.69224 5.13313 9.70911C6.00446 9.85372 6.78702 10.329 7.31884 11.0365C7.59539 11.4224 7.78391 11.8646 7.87104 12.3318C7.88616 12.4088 7.88421 12.4882 7.86533 12.5643C7.84644 12.6404 7.81109 12.7115 7.76177 12.7723C7.71245 12.8332 7.65039 12.8825 7.57998 12.9166C7.50957 12.9507 7.43253 12.9688 7.35435 12.9697V12.9697Z" fill="white"/>
<path d="M12.9457 5.50665C12.8044 5.50665 12.6689 5.45033 12.569 5.35009C12.4691 5.24985 12.413 5.1139 12.413 4.97213C12.413 4.76421 12.3307 4.56481 12.1842 4.41779C12.0376 4.27077 11.8389 4.18817 11.6317 4.18817C11.4245 4.18817 11.2258 4.27077 11.0793 4.41779C10.9328 4.56481 10.8505 4.76421 10.8505 4.97213C10.8505 5.1139 10.7944 5.24985 10.6945 5.35009C10.5946 5.45033 10.4591 5.50665 10.3178 5.50665V5.50665C10.1766 5.50665 10.0411 5.45033 9.94117 5.35009C9.84128 5.24985 9.78516 5.1139 9.78516 4.97213C9.78516 4.72879 9.83292 4.48784 9.92572 4.26302C10.0185 4.03821 10.1545 3.83394 10.326 3.66187C10.4975 3.4898 10.701 3.35331 10.9251 3.26019C11.1491 3.16707 11.3892 3.11914 11.6317 3.11914C11.8742 3.11914 12.1144 3.16707 12.3384 3.26019C12.5624 3.35331 12.766 3.4898 12.9375 3.66187C13.1089 3.83394 13.245 4.03821 13.3378 4.26302C13.4306 4.48784 13.4783 4.72879 13.4783 4.97213C13.4783 5.1139 13.4222 5.24985 13.3223 5.35009C13.2224 5.45033 13.0869 5.50665 12.9457 5.50665V5.50665Z" fill="white"/>
<path d="M11.6161 9.61993C11.1265 9.61946 10.6571 9.42408 10.3109 9.07668C9.9647 8.72928 9.77 8.25824 9.76953 7.76694C9.76953 7.62518 9.82565 7.48922 9.92555 7.38898C10.0254 7.28874 10.1609 7.23242 10.3022 7.23242C10.4435 7.23242 10.579 7.28874 10.6789 7.38898C10.7787 7.48922 10.8349 7.62518 10.8349 7.76694C10.8349 7.97486 10.9172 8.17426 11.0637 8.32128C11.2102 8.4683 11.4089 8.5509 11.6161 8.5509C11.8233 8.5509 12.022 8.4683 12.1685 8.32128C12.315 8.17426 12.3974 7.97486 12.3974 7.76694C12.3974 7.62518 12.4535 7.48922 12.5534 7.38898C12.6533 7.28874 12.7888 7.23242 12.93 7.23242C13.0713 7.23242 13.2068 7.28874 13.3067 7.38898C13.4066 7.48922 13.4627 7.62518 13.4627 7.76694C13.4622 8.25824 13.2675 8.72928 12.9213 9.07668C12.5751 9.42408 12.1057 9.61946 11.6161 9.61993V9.61993Z" fill="white"/>
<path d="M9.38357 17.1081H9.24686C8.1324 17.0985 7.0327 16.8513 6.02067 16.3829C4.65228 15.7234 3.49305 14.6959 2.67196 13.4146L0.518211 10.1754C0.29094 9.89569 -0.310975 9.11708 0.200386 8.12644C0.426688 7.69195 0.815067 7.36491 1.28077 7.21671C1.74647 7.0685 2.25169 7.11115 2.68617 7.33535C2.7281 7.35741 2.76691 7.38497 2.80158 7.41731L4.51499 9.00839L4.51499 7.77544C4.51499 7.63368 4.57111 7.49772 4.67101 7.39748C4.7709 7.29724 4.90639 7.24092 5.04766 7.24092C5.18893 7.24092 5.32442 7.29724 5.42431 7.39748C5.52421 7.49772 5.58033 7.63368 5.58033 7.77544L5.58033 10.2289C5.5791 10.3315 5.54846 10.4316 5.49205 10.5173C5.43564 10.6029 5.35585 10.6704 5.26222 10.7117C5.1686 10.7531 5.06509 10.7665 4.96407 10.7504C4.86305 10.7343 4.76878 10.6893 4.69255 10.6209L2.14285 8.25651C1.96247 8.18022 1.76017 8.1745 1.5758 8.24045C1.39143 8.30641 1.23836 8.43927 1.14676 8.61285C0.995836 8.90505 1.0491 9.13311 1.35983 9.5144L1.39001 9.55538L3.55797 12.8159C4.2698 13.9349 5.27726 14.8336 6.46811 15.4119C7.34602 15.8176 8.29987 16.0314 9.26639 16.0391C11.1165 16.0711 12.885 15.4404 13.9787 14.3607C14.6641 13.6854 15.0263 12.8979 15.0281 12.0819L15.0458 1.85834C15.0458 1.65042 14.9635 1.45102 14.817 1.30399C14.6705 1.15697 14.4718 1.07438 14.2646 1.07438C14.0574 1.07438 13.8587 1.15697 13.7122 1.30399C13.5656 1.45102 13.4833 1.65042 13.4833 1.85834L13.4745 7.65785C13.4745 7.79961 13.4183 7.93557 13.3184 8.03581C13.2186 8.13605 13.0831 8.19236 12.9418 8.19236C12.8005 8.19236 12.665 8.13605 12.5651 8.03581C12.4652 7.93557 12.4091 7.79961 12.4091 7.65785L12.4162 1.85299C12.4162 1.36155 12.6108 0.890232 12.9571 0.542729C13.3034 0.195225 13.7731 0 14.2628 0C14.7526 0 15.2222 0.195225 15.5685 0.542729C15.9148 0.890232 16.1094 1.36155 16.1094 1.85299L16.0916 12.0801C16.0916 13.1883 15.6158 14.2395 14.7245 15.1197C13.4567 16.3705 11.4681 17.1081 9.38357 17.1081Z" fill="white"/>
</svg>
