<svg width="18" height="23" viewBox="0 0 18 23" fill="none" xmlns="http://www.w3.org/2000/svg">
<path d="M9 13.5C6.51478 13.5 4.50001 11.4852 4.50001 8.99999C4.50001 6.51477 6.51478 4.5 9 4.5C11.4852 4.5 13.5 6.51477 13.5 8.99999C13.4971 11.484 11.484 13.4971 9 13.5ZM9 6.29999C7.50887 6.29999 6.3 7.50886 6.3 8.99999C6.3 10.4911 7.50887 11.7 9 11.7C10.4911 11.7 11.7 10.4911 11.7 8.99999C11.6984 7.50967 10.4903 6.30163 9 6.29999ZM9 1.63636C13.0602 1.63636 16.3636 4.93977 16.3636 9.00245C16.3661 10.584 15.8408 12.1488 14.8844 13.4084L14.8422 13.4644C14.7854 13.5388 14.6868 13.6681 14.6438 13.7225L9 20.3788L3.35905 13.7262C3.29728 13.6481 3.11646 13.4104 3.11646 13.4104C2.16001 12.15 1.63433 10.5848 1.63637 8.99999C1.63637 4.93977 4.93978 1.63636 9 1.63636ZM9 0C4.02955 0 9.61367e-06 4.02954 9.61367e-06 8.99999C-0.00285402 10.9497 0.6341 12.8467 1.81351 14.4C1.81351 14.4 2.05937 14.7228 2.09823 14.7694L8.18959 21.9534L9 22.9091L9.94745 21.7918L15.9046 14.7661C15.941 14.7228 16.1865 14.4 16.1865 14.4L16.1877 14.3979C17.3663 12.8454 18.0029 10.9489 18 8.99999C18 4.02954 13.9704 0 9 0Z" fill="black"/>
</svg>
